<?xml version="1.0" encoding="UTF-8"?>
<svg id="Calque_2" data-name="Calque 2" xmlns="http://www.w3.org/2000/svg" viewBox="0 0 318.21 75.67">
  <defs>
    <style>
      .cls-1 {
        fill: #1d1d1b;
      }

      .cls-2 {
        fill: #6bb534;
      }
    </style>
  </defs>
  <g id="Calque_1-2" data-name="Calque 1">
    <path class="cls-1" d="M98.08,53.97c-3.62,0-6.92-.93-9.9-2.79-2.98-1.86-5.35-4.36-7.11-7.49-1.76-3.13-2.64-6.61-2.64-10.43,0-2.85.51-5.54,1.53-8.06,1.02-2.52,2.42-4.74,4.2-6.65,1.78-1.91,3.86-3.41,6.23-4.51,2.37-1.1,4.93-1.64,7.68-1.64,3.46,0,6.16.65,8.1,1.95,1.94,1.3,3.44,3.02,4.51,5.16h0c0-3.46,2.81-6.27,6.27-6.27h3.97v39.73h-10.01v-6.49c-1.07,2.24-2.59,4.05-4.55,5.42s-4.73,2.06-8.29,2.06ZM99.76,44.65c2.29,0,4.27-.52,5.92-1.57,1.66-1.04,2.94-2.43,3.86-4.16.92-1.73,1.37-3.62,1.37-5.65s-.46-4-1.37-5.73c-.92-1.73-2.2-3.13-3.86-4.2-1.66-1.07-3.63-1.6-5.92-1.6s-4.11.52-5.77,1.57c-1.66,1.04-2.94,2.43-3.86,4.16-.92,1.73-1.38,3.64-1.38,5.73s.46,3.86,1.38,5.62c.92,1.76,2.2,3.17,3.86,4.24,1.66,1.07,3.58,1.6,5.77,1.6Z"/>
    <path class="cls-1" d="M143.03,53.97c-6.67,0-12.18-2.32-16.51-6.95l6.95-7.26c2.9,3.26,6.01,4.89,9.32,4.89,1.78,0,3.14-.39,4.09-1.18.94-.79,1.41-1.77,1.41-2.94,0-.71-.17-1.32-.5-1.83-.33-.51-1.02-.99-2.06-1.45-1.04-.46-2.61-.92-4.7-1.38-3.57-.87-6.22-1.94-7.95-3.21-1.73-1.27-2.47-2.13-3.07-3.19-.82-1.46-1.21-3.38-1.21-5.06,0-3.46,1.31-6.35,3.94-8.67,2.62-2.32,6.25-3.48,10.89-3.48,3.21,0,5.96.48,8.25,1.45,2.29.97,4.46,2.78,6.5,5.42l-7.49,5.73c-.97-1.53-2.05-2.62-3.25-3.29-1.2-.66-2.46-.99-3.78-.99-1.43,0-2.61.28-3.55.84-.94.56-1.41,1.45-1.41,2.67,0,.66.31,1.31.92,1.95.61.64,2.09,1.26,4.43,1.87,3.87.97,6.83,2.1,8.86,3.4s3.44,2.76,4.2,4.39c.76,1.63,1.15,3.44,1.15,5.43,0,2.45-.68,4.64-2.03,6.57-1.35,1.94-3.18,3.46-5.5,4.58-2.32,1.12-4.95,1.68-7.91,1.68Z"/>
    <path class="cls-1" d="M180.91,52.97c-3.92,0-6.93-.97-9.02-2.9-2.09-1.94-3.13-5.07-3.13-9.4v-18.64h-5.58v-8.79h5.58v-1.92c0-2.89,2.02-5.4,4.85-6l5.46-1.17v9.09h7.49v8.79h-7.49v18.11c0,2.45,1.07,3.67,3.21,3.67h4.28v9.17h-5.65Z"/>
    <path class="cls-1" d="M211.84,53.97c-4.08,0-7.67-.94-10.77-2.83-3.11-1.88-5.51-4.39-7.22-7.53-1.71-3.13-2.56-6.61-2.56-10.43s.89-7.32,2.67-10.51c1.78-3.18,4.21-5.72,7.3-7.6,3.08-1.88,6.61-2.83,10.58-2.83s7.48.94,10.51,2.83c3.03,1.89,5.4,4.42,7.11,7.6,1.71,3.18,2.56,6.69,2.56,10.51,0,.56-.03,1.15-.08,1.76-.05.61-.13,1.25-.23,1.91h-29.73c.56,2.34,1.69,4.25,3.4,5.73,1.71,1.48,3.86,2.06,6.46,2.06,2.24,0,4.19-.36,5.85-1.38,1.65-1.02,2.94-2.29,3.86-3.82l8.02,6.04c-1.58,2.5-3.95,4.53-7.11,6.11-3.16,1.58-6.7,2.37-10.62,2.37ZM211.69,21.11c-2.45,0-4.53.74-6.26,2.22-1.73,1.48-2.88,3.41-3.44,5.81h19.64c-.56-2.19-1.72-4.07-3.48-5.65-1.76-1.58-3.91-2.37-6.46-2.37Z"/>
    <path class="cls-1" d="M258.11,53.97c-2.85,0-5.51-.54-7.98-1.61-2.47-1.07-4.65-2.56-6.53-4.47-1.88-1.91-3.35-4.13-4.39-6.65-1.04-2.52-1.57-5.23-1.57-8.14,0-3.87.9-7.37,2.71-10.51,1.81-3.13,4.3-5.64,7.49-7.53,3.18-1.88,6.79-2.83,10.81-2.83,3.62-.05,6.85.59,9.7,1.91,2.85,1.33,5.12,3.16,6.8,5.5l-7.95,6.49c-.92-1.38-2.1-2.47-3.55-3.29-1.45-.81-3.07-1.22-4.85-1.22-2.19,0-4.1.52-5.73,1.57-1.63,1.04-2.89,2.43-3.78,4.16-.89,1.73-1.34,3.64-1.34,5.73s.47,3.94,1.41,5.69c.94,1.76,2.24,3.16,3.9,4.2,1.66,1.04,3.58,1.57,5.77,1.57,1.99,0,3.67-.45,5.04-1.34,1.37-.89,2.57-2.03,3.59-3.4l7.49,6.49c-1.88,2.4-4.22,4.27-6.99,5.62-2.78,1.35-6.13,2.03-10.05,2.03Z"/>
    <path class="cls-1" d="M280.77,52.97V0h4.05c3.46,0,6.27,2.81,6.27,6.27v12.48c2.14-4.28,6.14-6.42,12-6.42,2.85,0,5.42.66,7.72,1.99,2.29,1.33,4.1,3.21,5.42,5.65,1.32,2.45,1.99,5.35,1.99,8.71v24.3h-10.32v-21.78c0-3.46-.79-5.97-2.37-7.53-1.58-1.55-3.64-2.33-6.19-2.33-2.19,0-4.11.78-5.77,2.33-1.66,1.55-2.48,4.06-2.48,7.53v21.78h-10.32Z"/>
    <path class="cls-1" d="M72.08,13.24h-4.01c-3.46,0-6.27,2.81-6.27,6.27v33.47h10.32V13.24h-.04Z"/>
    <path class="cls-1" d="M48.78,75.67c-.7,0-1.34-.15-1.92-.45-.58-.3-1.07-.78-1.45-1.45l1.52-.97c.23.45.51.78.85.99s.71.31,1.09.31c.41,0,.73-.09.97-.28.23-.18.35-.43.35-.73s-.09-.53-.28-.7-.43-.32-.74-.43c-.31-.11-.64-.21-1-.3-.68-.18-1.22-.47-1.62-.87-.4-.41-.6-.94-.6-1.6,0-.53.13-.99.39-1.38.26-.39.62-.7,1.09-.92.47-.22,1.01-.33,1.63-.33.69,0,1.26.14,1.72.43.46.28.86.69,1.18,1.21l-1.51.93c-.21-.34-.43-.6-.65-.76-.23-.16-.5-.24-.83-.24-.35,0-.64.09-.87.26-.23.18-.35.41-.35.7,0,.33.14.56.41.71.27.15.6.28.99.4.26.08.55.18.87.3.32.11.63.27.94.47s.55.46.74.79c.19.33.29.74.29,1.24,0,.53-.13.99-.39,1.4-.26.4-.63.72-1.11.94-.48.23-1.05.34-1.72.34Z"/>
    <path class="cls-1" d="M53.84,75.51v-8.8h2.97c.99,0,1.77.23,2.33.7.57.47.85,1.16.85,2.08s-.28,1.63-.85,2.11-1.34.72-2.33.72h-1.21v3.19h-1.76ZM55.6,70.73h1.11c.48,0,.85-.1,1.11-.3.26-.2.39-.51.39-.93s-.13-.73-.39-.92c-.26-.2-.63-.3-1.11-.3h-1.11v2.45Z"/>
    <path class="cls-1" d="M61.69,75.51v-8.8h5.15v1.58h-3.39v1.97h3.33v1.53h-3.33v2.13h3.42v1.58h-5.18ZM63.71,66.13l.55-2.19h1.74l-1.11,2.19h-1.18Z"/>
    <path class="cls-1" d="M73.08,75.67c-.65,0-1.26-.12-1.82-.35-.56-.24-1.04-.56-1.46-.98-.41-.42-.74-.9-.97-1.45-.23-.55-.35-1.14-.35-1.77s.11-1.22.33-1.77c.22-.55.54-1.04.94-1.46.41-.42.89-.75,1.45-.99.56-.24,1.18-.36,1.86-.36.72,0,1.34.11,1.86.34.52.23.97.58,1.36,1.04l-1.24,1.08c-.53-.55-1.19-.83-1.97-.83-.56,0-1.05.13-1.46.4-.42.27-.74.63-.96,1.07s-.34.93-.34,1.47.11,1.03.34,1.47c.23.44.55.79.97,1.06.42.26.92.4,1.5.4.43,0,.81-.07,1.13-.21.33-.14.62-.36.88-.64l1.28,1.09c-.34.4-.78.74-1.34,1s-1.22.4-1.99.4Z"/>
    <path class="cls-1" d="M78.07,75.51v-8.8h1.76v8.8h-1.76Z"/>
    <path class="cls-1" d="M81.16,75.51l3.6-8.8h1.52l3.58,8.8h-1.91l-.6-1.67h-3.67l-.6,1.67h-1.91ZM85.2,69.91l-.94,2.4h2.52l-.94-2.4c-.13-.34-.23-.67-.31-1.01-.08.36-.19.7-.31,1.01Z"/>
    <path class="cls-1" d="M91.2,75.51v-8.8h1.76v7.22h3.28v1.58h-5.04Z"/>
    <path class="cls-1" d="M98.12,75.51v-8.8h1.76v8.8h-1.76Z"/>
    <path class="cls-1" d="M104.95,75.67c-.7,0-1.34-.15-1.92-.45-.58-.3-1.07-.78-1.45-1.45l1.52-.97c.23.45.51.78.85.99s.71.31,1.09.31c.41,0,.73-.09.97-.28.23-.18.35-.43.35-.73s-.09-.53-.28-.7-.43-.32-.74-.43c-.31-.11-.64-.21-1-.3-.68-.18-1.22-.47-1.62-.87-.4-.41-.6-.94-.6-1.6,0-.53.13-.99.39-1.38.26-.39.62-.7,1.09-.92.47-.22,1.01-.33,1.63-.33.69,0,1.26.14,1.72.43.46.28.86.69,1.18,1.21l-1.51.93c-.21-.34-.43-.6-.65-.76-.23-.16-.5-.24-.83-.24-.35,0-.64.09-.87.26-.23.18-.35.41-.35.7,0,.33.14.56.41.71.27.15.6.28.99.4.26.08.55.18.87.3.32.11.63.27.94.47s.55.46.74.79c.19.33.29.74.29,1.24,0,.53-.13.99-.39,1.4-.26.4-.63.72-1.11.94-.48.23-1.05.34-1.72.34Z"/>
    <path class="cls-1" d="M112.09,75.51v-7.22h-2.52v-1.58h6.79v1.58h-2.52v7.22h-1.76Z"/>
    <path class="cls-1" d="M118.13,75.51v-8.8h5.15v1.58h-3.39v1.97h3.33v1.53h-3.33v2.13h3.42v1.58h-5.18Z"/>
    <path class="cls-1" d="M130.91,75.51l-3.51-8.8h2.04l2.01,5.6c.13.37.24.74.31,1.11.04-.18.09-.37.14-.56s.11-.37.18-.55l2.01-5.6h2l-3.48,8.8h-1.7Z"/>
    <path class="cls-1" d="M137.45,75.51v-8.8h5.15v1.58h-3.39v1.97h3.33v1.53h-3.33v2.13h3.42v1.58h-5.18ZM139.48,66.13l.55-2.19h1.74l-1.11,2.19h-1.18Z"/>
    <path class="cls-1" d="M144.69,75.51v-8.8h1.76v3.55h3.65v-3.55h1.76v8.8h-1.76v-3.67h-3.65v3.67h-1.76Z"/>
    <path class="cls-1" d="M154.06,75.51v-8.8h1.76v8.8h-1.76Z"/>
    <path class="cls-1" d="M162.3,75.67c-.65,0-1.26-.12-1.82-.35-.56-.24-1.04-.56-1.46-.98-.41-.42-.74-.9-.97-1.45-.23-.55-.35-1.14-.35-1.77s.11-1.22.33-1.77.54-1.04.94-1.46c.41-.42.89-.75,1.45-.99.56-.24,1.18-.36,1.86-.36.72,0,1.34.11,1.86.34.52.23.97.58,1.36,1.04l-1.24,1.08c-.53-.55-1.19-.83-1.97-.83-.56,0-1.05.13-1.46.4-.42.27-.74.63-.96,1.07s-.34.93-.34,1.47.11,1.03.34,1.47c.23.44.55.79.97,1.06.42.26.92.4,1.5.4.43,0,.81-.07,1.13-.21.33-.14.62-.36.88-.64l1.28,1.09c-.34.4-.78.74-1.34,1s-1.22.4-1.99.4Z"/>
    <path class="cls-1" d="M170.72,75.67c-.71,0-1.34-.15-1.87-.43-.54-.29-.95-.69-1.24-1.21-.29-.52-.44-1.11-.44-1.78v-5.54h1.76v5.36c0,.62.15,1.11.45,1.47s.75.53,1.35.53,1.05-.18,1.35-.53.45-.85.45-1.47v-5.36h1.76v5.54c0,.67-.15,1.26-.44,1.78-.29.52-.71.92-1.24,1.21-.53.29-1.16.43-1.88.43Z"/>
    <path class="cls-1" d="M176.35,75.51v-8.8h1.76v7.22h3.28v1.58h-5.04Z"/>
    <path class="cls-1" d="M183.28,75.51v-8.8h5.15v1.58h-3.39v1.97h3.33v1.53h-3.33v2.13h3.42v1.58h-5.18Z"/>
    <path class="cls-1" d="M193.14,75.67c-.7,0-1.34-.15-1.92-.45-.58-.3-1.07-.78-1.45-1.45l1.52-.97c.23.45.51.78.85.99s.71.31,1.09.31c.41,0,.73-.09.97-.28.23-.18.35-.43.35-.73s-.09-.53-.28-.7-.43-.32-.74-.43c-.31-.11-.64-.21-1-.3-.68-.18-1.22-.47-1.62-.87-.4-.41-.6-.94-.6-1.6,0-.53.13-.99.39-1.38.26-.39.62-.7,1.09-.92.47-.22,1.01-.33,1.63-.33.69,0,1.26.14,1.72.43.46.28.86.69,1.18,1.21l-1.51.93c-.21-.34-.43-.6-.65-.76-.23-.16-.5-.24-.83-.24-.35,0-.64.09-.87.26-.23.18-.35.41-.35.7,0,.33.14.56.41.71.27.15.6.28.99.4.26.08.55.18.87.3.32.11.63.27.94.47s.55.46.74.79c.19.33.29.74.29,1.24,0,.53-.13.99-.39,1.4-.26.4-.63.72-1.11.94-.48.23-1.05.34-1.72.34Z"/>
    <path class="cls-2" d="M200.19,75.51l3.6-8.8h1.52l3.58,8.8h-1.91l-.6-1.67h-3.67l-.6,1.67h-1.91ZM204.23,69.91l-.94,2.4h2.52l-.94-2.4c-.13-.34-.23-.67-.31-1.01-.08.36-.19.7-.31,1.01Z"/>
    <path class="cls-2" d="M210.22,75.51v-8.8h1.76v7.22h3.28v1.58h-5.04Z"/>
    <path class="cls-2" d="M217.15,75.51v-8.8h1.76v7.22h3.28v1.58h-5.04Z"/>
    <path class="cls-2" d="M224.08,75.51v-8.8h5.15v1.58h-3.39v1.97h3.33v1.53h-3.33v2.13h3.42v1.58h-5.18Z"/>
    <path class="cls-2" d="M231.32,75.51v-8.8h2.19l1.82,3.89c.21.45.38.83.51,1.12s.23.54.3.73c.07.19.13.36.17.5.04-.14.1-.31.16-.5.07-.19.17-.44.3-.73s.3-.67.51-1.12l1.84-3.89h2.11v8.8h-1.72v-3.56c0-.4,0-.75.01-1.03,0-.29.02-.55.04-.79.02-.24.04-.48.08-.74l-2.93,6.11h-.86l-2.93-6.11c.03.25.06.5.08.74.02.24.03.5.04.79,0,.28.01.63.01,1.03v3.56h-1.72Z"/>
    <path class="cls-2" d="M242.56,75.51l3.6-8.8h1.52l3.58,8.8h-1.91l-.6-1.67h-3.67l-.6,1.67h-1.91ZM246.6,69.91l-.94,2.4h2.52l-.94-2.4c-.13-.34-.23-.67-.31-1.01-.08.36-.19.7-.31,1.01Z"/>
    <path class="cls-2" d="M252.59,75.51v-8.8h1.33l4.29,5.09c.1.12.2.24.3.36.1.12.19.25.28.37-.02-.18-.04-.4-.05-.66s-.01-.51-.01-.77v-4.39h1.61v8.8h-1.14l-4.45-5.29c-.1-.12-.2-.24-.3-.36-.1-.12-.19-.25-.28-.37.03.18.04.4.05.66,0,.26.01.51.01.77v4.59h-1.64Z"/>
    <path class="cls-2" d="M262.54,75.51v-8.8h3.14c1.02,0,1.86.19,2.52.58s1.17.91,1.5,1.57c.33.66.5,1.42.5,2.26s-.17,1.59-.5,2.25c-.33.66-.83,1.18-1.5,1.57s-1.51.57-2.52.57h-3.14ZM265.47,68.29h-1.17v5.63h1.17c.69,0,1.26-.12,1.68-.37.43-.25.74-.58.93-1.01.19-.42.29-.9.29-1.43s-.1-1.02-.29-1.44c-.19-.42-.5-.76-.93-1.01-.43-.25-.99-.38-1.68-.38Z"/>
    <path class="cls-2" d="M274.7,75.67c-.7,0-1.34-.15-1.92-.45-.58-.3-1.07-.78-1.45-1.45l1.52-.97c.23.45.51.78.85.99s.71.31,1.09.31c.41,0,.73-.09.97-.28.23-.18.35-.43.35-.73s-.09-.53-.28-.7-.43-.32-.74-.43c-.31-.11-.64-.21-1-.3-.68-.18-1.22-.47-1.62-.87-.4-.41-.6-.94-.6-1.6,0-.53.13-.99.39-1.38.26-.39.62-.7,1.09-.92.47-.22,1.01-.33,1.63-.33.69,0,1.26.14,1.72.43.46.28.86.69,1.18,1.21l-1.51.93c-.21-.34-.43-.6-.65-.76-.23-.16-.5-.24-.83-.24-.35,0-.64.09-.87.26-.23.18-.35.41-.35.7,0,.33.14.56.41.71.27.15.6.28.99.4.26.08.55.18.87.3.32.11.63.27.94.47s.55.46.74.79c.19.33.29.74.29,1.24,0,.53-.13.99-.39,1.4-.26.4-.63.72-1.11.94-.48.23-1.05.34-1.72.34Z"/>
    <path class="cls-1" d="M22.94,2.19c-.22-.41-.63-.66-1.07-.66H2.75C.69,1.53-.64,3.84.32,5.76l4.12,8.31c.21.43.63.7,1.09.7h19.15c2.23,0,3.64-2.54,2.54-4.59l-4.28-7.99Z"/>
    <polygon class="cls-1" points="42 45.21 41.99 45.23 42.03 45.14 42 45.21"/>
    <polygon class="cls-1" points="41.99 45.23 42.03 45.14 41.99 45.23 41.99 45.23 41.99 45.23"/>
    <polygon class="cls-1" points="38.14 52.97 38.15 52.98 38.16 52.98 38.16 52.97 38.15 52.97 38.14 52.97"/>
    <polygon class="cls-1" points="41.99 45.23 41.99 45.23 41.99 45.23 41.99 45.23"/>
    <polygon class="cls-1" points="41.99 45.23 41.99 45.23 41.99 45.23 41.99 45.23"/>
    <path class="cls-1" d="M42.89,42.87h-11.52c-.51,0-.98-.29-1.2-.75l-6.85-13.83h0l-.12-.25c-.47-.95-1.41-1.55-2.43-1.55h-5.53c-2.06,0-3.39,2.31-2.43,4.24l4.47,9.01,6.57,13.24h14.4l3.06-6.31.7-1.44h0s0,0,0,0h0c.41-.82.7-1.61.91-2.36Z"/>
    <path class="cls-2" d="M48.44,26.72l-4.7-8.81c-.66-1.24-1.95-2.01-3.35-2.01h-6.37c-2.25,0-3.66,2.55-2.56,4.62l4.65,8.7.03.06h0s4.35,8,4.35,8c.82,1.52,1.34,3.19,1.4,4.91,0,.15,0,.3,0,.46,0,.78-.08,1.65-.29,2.58-.21.93-.55,1.93-1.07,2.98h0s.01-.02.01-.02l.04-.07-.05.1-.7,1.45,2.09-4.22s.04-.09.06-.14c.51-1.04,1.15-2.33,1.81-3.65l1.27-2.56c.1-.19.19-.38.28-.56,0-.01.01-.03.02-.04.78-1.57,1.35-2.73,1.36-2.75l1.79-3.61c.85-1.71.82-3.73-.08-5.42Z"/>
    <path class="cls-1" d="M53.58,1.53h-12.6c-2.1,0-3.44,2.38-2.43,4.31l4.8,8.93h0l5.07-10.07c.98-1.95,2.97-3.17,5.15-3.17Z"/>
    <path class="cls-2" d="M59.47,1.53h-5.89c-2.18,0-4.17,1.23-5.15,3.17l-5.07,10.07h13.23c.46,0,.88-.27,1.1-.7l4.19-8.31c.97-1.93-.34-4.24-2.4-4.24Z"/>
  </g>
</svg>