<?xml version="1.0" encoding="UTF-8"?>
<svg id="Calque_2" data-name="Calque 2" xmlns="http://www.w3.org/2000/svg" viewBox="0 0 62.2 51.46">
  <defs>
    <style>
      .cls-1 {
        fill: none;
      }

      .cls-2 {
        fill: #6bb534;
      }

      .cls-3 {
        fill: #fff;
      }
    </style>
  </defs>
  <g id="Calque_1-2" data-name="Calque 1">
    <g>
      <path class="cls-3" d="M22.94.66C22.72.25,22.31,0,21.87,0H2.75C.69,0-.64,2.31.32,4.24l4.12,8.31c.21.43.63.7,1.09.7h19.15c2.23,0,3.64-2.54,2.54-4.59L22.94.66Z"/>
      <polygon class="cls-1" points="42 43.68 41.99 43.7 42.03 43.61 42 43.68"/>
      <polygon class="cls-3" points="41.99 43.71 42.03 43.61 41.99 43.7 41.99 43.7 41.99 43.71"/>
      <polygon class="cls-2" points="38.14 51.45 38.15 51.46 38.16 51.46 38.16 51.45 38.15 51.45 38.14 51.45"/>
      <polygon class="cls-2" points="41.99 43.7 41.99 43.7 41.99 43.7 41.99 43.7"/>
      <polygon class="cls-2" points="41.99 43.7 41.99 43.7 41.99 43.71 41.99 43.7"/>
      <path class="cls-3" d="M42.89,41.34h-11.52c-.51,0-.98-.29-1.2-.75l-6.85-13.83h0l-.12-.25c-.47-.95-1.41-1.55-2.43-1.55h-5.53c-2.06,0-3.39,2.31-2.43,4.24l4.47,9.01,6.57,13.24h14.4l3.06-6.31.7-1.44h0s0,0,0,0h0c.41-.82.7-1.61.91-2.36Z"/>
      <path class="cls-2" d="M48.44,25.19l-4.7-8.81c-.66-1.24-1.95-2.01-3.35-2.01h-6.37c-2.25,0-3.66,2.55-2.56,4.62l4.65,8.7.03.06h0s4.35,8,4.35,8c.82,1.52,1.34,3.19,1.4,4.91,0,.15,0,.3,0,.46,0,.78-.08,1.65-.29,2.58-.21.93-.55,1.93-1.07,2.98h0s.01-.02.01-.02l.04-.07-.05.1-.7,1.45,2.09-4.22s.04-.09.06-.14c.51-1.04,1.15-2.33,1.81-3.65l1.27-2.56c.1-.19.19-.38.28-.56,0-.01.01-.03.02-.04.78-1.57,1.35-2.73,1.36-2.75l1.79-3.61c.85-1.71.82-3.73-.08-5.42Z"/>
      <g>
        <path class="cls-3" d="M53.58,0h-12.6c-2.1,0-3.44,2.38-2.43,4.31l4.8,8.93h0l5.07-10.07c.98-1.95,2.97-3.17,5.15-3.17Z"/>
        <path class="cls-2" d="M59.47,0h-5.89c-2.18,0-4.17,1.23-5.15,3.17l-5.07,10.07h13.23c.46,0,.88-.27,1.1-.7l4.19-8.31c.97-1.93-.34-4.24-2.4-4.24Z"/>
      </g>
    </g>
  </g>
</svg>